<svg width="24" height="24" viewBox="0 0 24 24" fill="none" xmlns="http://www.w3.org/2000/svg">
<g clip-path="url(#clip0_122_3)">
<path d="M4.01527 10.2328C2.68622 9.33632 1.13414 6.64973 2.05156 5.28959C2.9952 3.89059 6.04138 4.3621 7.37043 5.25855L9.94692 6.99642L19.2125 3.19305C19.6751 3.00184 20.2026 3.058 20.6184 3.33847L22.8218 4.8247C23.2454 5.11041 23.2642 5.72806 22.8594 6.04309L16.1647 11.1904L19.2736 13.2873L22.4622 12.1813C22.6836 12.1045 22.9331 12.137 23.1274 12.2681L24.7596 13.369C25.0627 13.5735 25.1385 13.9808 24.9367 14.28C24.9026 14.3306 24.8607 14.3758 24.815 14.4185L20.7049 17.8714L19.0431 22.9757C19.0245 23.0367 18.9944 23.0899 18.9603 23.1404C18.7558 23.4435 18.3485 23.5193 18.0493 23.3175L16.4171 22.2166C16.2228 22.0855 16.0992 21.8664 16.0874 21.6323L15.9184 18.2616L12.8095 16.1646L10.545 24.3001C10.4045 24.7933 9.82479 25.0073 9.40121 24.7216L7.19778 23.2354C6.78197 22.9549 6.53228 22.4868 6.53629 21.9863L6.59177 11.9706L4.01527 10.2328Z" fill="#1A2B3B"/>
</g>
<defs>
<clipPath id="clip0_122_3">
<rect width="24" height="24" fill="white"/>
</clipPath>
</defs>
</svg>
