<svg width="24" height="24" viewBox="0 0 24 24" fill="none" xmlns="http://www.w3.org/2000/svg">
<g clip-path="url(#clip0_114_66)">
<path d="M7.13321 5.4278C6.7183 3.8793 7.30949 0.833445 8.89421 0.40882C10.5242 -0.0279372 12.5139 2.32639 12.9288 3.87489L13.7331 6.87681L23.2212 10.0851C23.6957 10.2443 24.057 10.6328 24.1868 11.1172L24.8747 13.6845C25.007 14.178 24.6159 14.6565 24.1038 14.6287L15.6743 14.1212L16.6448 17.7435L19.777 19.0007C19.9945 19.088 20.1614 19.2762 20.222 19.5026L20.7316 21.4042C20.8262 21.7574 20.6162 22.1146 20.2675 22.208C20.2087 22.2237 20.1474 22.2305 20.0849 22.2327L14.7176 22.1422L10.1147 24.9041C10.0607 24.938 10.0031 24.9583 9.9442 24.9741C9.59103 25.0687 9.23388 24.8587 9.14046 24.5101L8.63091 22.6084C8.57025 22.382 8.62068 22.1356 8.7654 21.9512L10.8493 19.2964L9.87872 15.6742L2.83228 20.3284C2.40264 20.6085 1.82475 20.3897 1.69251 19.8961L1.00462 17.3289C0.874803 16.8444 0.993454 16.3273 1.32485 15.9522L7.93758 8.42972L7.13321 5.4278Z" fill="#335576"/>
</g>
<defs>
<clipPath id="clip0_114_66">
<rect width="24" height="24" fill="white"/>
</clipPath>
</defs>
</svg>
